<svg version="1" xmlns="http://www.w3.org/2000/svg" width="533.333" height="533.333" viewBox="0 0 400.000000 400.000000"><path d="M206.8 4.3c-5.7 3-8.3 5.5-28.9 29.6-12.5 14.4-23.3 26.9-24.1 27.8-1.3 1.3-5.3-.5-33.7-14.6L87.9 31h-7.3C63.5 31 51 43.4 51 60.6c0 5.9.5 8.1 3 13.2 1.7 3.3 4.7 7.5 6.6 9.2 2 1.7 21.4 12 43.2 22.9l39.7 19.9 27.7 24.2 27.7 24.2-22.1 27.7c-12.1 15.2-22.6 28.2-23.2 28.9-1 1-11.3-4.2-49.6-24.9C38.5 170.6 39.3 171 30.6 171c-12.1 0-21.2 5.6-26.5 16.2-2.6 5.1-3.1 7.3-3.1 13.3 0 6 .5 8.2 3 13.3 1.7 3.3 4.5 7.3 6.3 8.9 1.8 1.5 17.4 10.4 34.7 19.7 17.3 9.3 33 18.3 34.9 19.9 3.6 3.1 12.5 7.7 15.1 7.7.8 0 10.5 4.9 21.5 10.9l20 10.8 8.9 22.2c4.8 12.2 8.6 22.4 8.3 22.7-.3.3-19.8-.8-43.4-2.5-54.6-3.9-55.3-3.9-63.1 0-10.6 5.3-16.2 14.4-16.2 26.5 0 5.9.5 8.1 3.1 13.2 3.4 6.9 7.1 10.5 14.5 13.9 4.8 2.2 9.5 2.6 74.5 7.3 38.2 2.8 72.8 5 76.9 5 6.2 0 8.5-.5 13.5-2.9 9.7-4.6 174.7-102 177.8-104.9 1.5-1.4 4.1-5.3 5.7-8.6 2.5-4.9 3-7.1 3-13 0-12.1-5.6-21.2-16.2-26.5-5.1-2.6-7.3-3.1-13.2-3.1-6.1 0-8.2.5-14.1 3.4-3.9 1.9-37.1 21.2-74 42.9l-67 39.5-10.2-25.6-10.2-25.5 32.2-40.4 32.2-40.4 48.7-24.4c26.7-13.4 50.2-25.8 52.2-27.5 1.9-1.7 4.9-5.9 6.6-9.2 2.5-5.1 3-7.3 3-13.2 0-12.1-5.6-21.2-16.2-26.5-5.1-2.6-7.3-3.1-13.4-3.1h-7.3l-43.8 21.9-43.9 21.9-19.9-17.5c-11-9.6-20.6-18-21.3-18.7-1-1 2.8-5.9 19.3-25.2 23.9-27.8 26.5-32 26.5-42.9C250 13.4 237.5 1 220.3 1c-6.1 0-8 .5-13.5 3.3z"/></svg>